<?xml version="1.0" encoding="utf-8"?>
<!-- Generator: Adobe Illustrator 22.1.0, SVG Export Plug-In . SVG Version: 6.00 Build 0)  -->
<svg version="1.1" id="Calque_1" xmlns="http://www.w3.org/2000/svg" xmlns:xlink="http://www.w3.org/1999/xlink" x="0px" y="0px"
	 viewBox="0 0 100 125" style="enable-background:new 0 0 100 125;" xml:space="preserve">
<style type="text/css">
	.st0{fill:#A10A0D;}
</style>
<path class="st0" d="M85,55H15c-2.8,0-5-2.2-5-5s2.2-5,5-5h70c2.8,0,5,2.2,5,5S87.8,55,85,55z M85,30H15c-2.8,0-5-2.2-5-5s2.2-5,5-5
	h70c2.8,0,5,2.2,5,5S87.8,30,85,30z M15,70h70c2.8,0,5,2.2,5,5s-2.2,5-5,5H15c-2.8,0-5-2.2-5-5S12.2,70,15,70z"/>
</svg>
