<svg id="Logo" xmlns="http://www.w3.org/2000/svg" viewBox="0 0 65 72.9">
  <defs>
    <style>
      .cls-1 {
        fill: #fff;
      }
    </style>
  </defs>
  <path id="Tracé_10" data-name="Tracé 10" class="cls-1" d="M65,21.7V51.3a6.773,6.773,0,0,1-3.5,6L36,72a7.063,7.063,0,0,1-6.9,0L3.5,57.2a6.773,6.773,0,0,1-3.5-6V21.7a6.89,6.89,0,0,1,3.5-6L29,.9a7.063,7.063,0,0,1,6.9,0L61.5,15.7A6.773,6.773,0,0,1,65,21.7Z"/>
  <g id="Groupe_1" data-name="Groupe 1">
    <path id="Tracé_11" data-name="Tracé 11" d="M15.1,34.9H19V44h3.3V29H18.7Z"/>
    <path id="Tracé_12" data-name="Tracé 12" d="M7.3,29V44h3.2V34.9h4L10.9,29Z"/>
    <path id="Tracé_13" data-name="Tracé 13" d="M33,31.7a5.7,5.7,0,0,1,3.9,1.5L39,30.7a8.463,8.463,0,0,0-5.9-2.1,7.688,7.688,0,0,0-7.7,6.2h3.5A4.516,4.516,0,0,1,33,31.7Z"/>
    <path id="Tracé_14" data-name="Tracé 14" d="M42.7,29V44h3.2V34.9h4L46.3,29Z"/>
    <path id="Tracé_15" data-name="Tracé 15" d="M54.1,29l-3.6,5.9h3.9V44h3.3V29Z"/>
    <path id="Tracé_16" data-name="Tracé 16" d="M36.3,38.2v2.1a5.167,5.167,0,0,1-3.1.9,4.36,4.36,0,0,1-4.3-3H25.3a7.433,7.433,0,0,0,7.7,6,9.764,9.764,0,0,0,6.4-2.4V38.1l-3.1.1Z"/>
  </g>
</svg>
